# xmcd CD database file
#
# Track frame offsets:
#	150
#	10704
#	22729
#	32957
#	43201
#	51564
#	62996
#	69978
#
# Disc length: 1119 seconds
#
# Revision: 0
# Processed by: cddbd v1.5.2PL0 Copyright (c) Steve Scherf et al.
# Submitted via: CDex 1.51
#
DISCID=69045d08
DTITLE=TRUJILLO and CUTURRUFO - VILLANCICOS
DYEAR=2005
DGENRE=Jazz
TTITLE0=SANTA KLAUS LLEGA AL PUEBLO
TTITLE1=BLANCA NAVIDAD
TTITLE2=JINGLE BELLS
TTITLE3=TAMBORILERO
TTITLE4=NOCHE DE PAZ
TTITLE5=PERO MIRA COMO BEBEN LOS PECES EN EL RIO
TTITLE6=FRAY JACOBO
TTITLE7=OVER THE RAINBOW
EXTD=YEAR: 2005
EXTT0=
EXTT1=
EXTT2=
EXTT3=
EXTT4=
EXTT5=
EXTT6=
EXTT7=
PLAYORDER=
